<?xml version="1.0" standalone="no"?>
<!DOCTYPE svg PUBLIC "-//W3C//DTD SVG 20010904//EN"
 "http://www.w3.org/TR/2001/REC-SVG-20010904/DTD/svg10.dtd">
<svg version="1.0" xmlns="http://www.w3.org/2000/svg"
 width="180.000000pt" height="180.000000pt" viewBox="0 0 180.000000 180.000000"
 preserveAspectRatio="xMidYMid meet">
<metadata>
Created by potrace 1.11, written by Peter Selinger 2001-2013
</metadata>
<g transform="translate(0.000000,180.000000) scale(0.100000,-0.100000)"
fill="#000000" stroke="none">
<path d="M0 900 l0 -900 900 0 900 0 0 900 0 900 -900 0 -900 0 0 -900z m689
377 c57 -28 91 -89 91 -159 l0 -49 -77 3 -78 3 -6 39 c-7 42 -38 76 -70 76
-32 0 -67 -22 -79 -50 -24 -58 15 -109 130 -171 99 -52 157 -111 176 -175 30
-105 -5 -209 -86 -254 -60 -33 -217 -42 -285 -15 -75 28 -115 95 -115 193 l0
42 79 0 79 0 7 -49 c8 -62 33 -86 87 -86 50 0 78 30 78 85 0 45 -37 83 -140
144 -126 75 -179 146 -180 239 0 80 39 150 104 184 72 37 210 37 285 0z m595
18 c103 -27 153 -82 163 -180 l6 -55 -80 0 -80 0 -6 42 c-10 77 -83 112 -140
68 -40 -31 -50 -99 -46 -303 4 -159 6 -179 25 -204 27 -37 60 -47 117 -39 l47
7 0 90 0 89 -45 0 -46 0 3 58 3 57 123 3 122 3 0 -200 0 -199 -27 -6 c-16 -3
-82 -9 -148 -13 -183 -9 -260 19 -305 112 -30 63 -47 259 -34 398 17 178 74
255 201 277 72 12 84 11 147 -5z"/>
</g>
</svg>
